<?xml version="1.0" encoding="iso-8859-1"?>
<!-- Generator: Adobe Illustrator 17.1.0, SVG Export Plug-In . SVG Version: 6.00 Build 0)  -->
<!DOCTYPE svg PUBLIC "-//W3C//DTD SVG 1.0//EN" "http://www.w3.org/TR/2001/REC-SVG-20010904/DTD/svg10.dtd">
<svg version="1.0" xmlns="http://www.w3.org/2000/svg" xmlns:xlink="http://www.w3.org/1999/xlink" x="0px" y="0px" width="110px"
	 height="110px" viewBox="0 0 110 110" style="enable-background:new 0 0 110 110;" xml:space="preserve">
<g id="Artboard" style="display:none;">
	<rect x="-571" y="-463" style="display:inline;fill:#8C8C8C;" width="1412" height="743"/>
</g>
<g id="R-Multicolor" style="display:none;">
	<circle style="display:inline;fill:#32BEA6;" cx="55" cy="55" r="55"/>
	<g style="display:inline;">
		<path style="fill:#FACB1B;" d="M83,31H55.828c-0.53,0-1.039-0.211-1.414-0.586l-2.828-2.828C51.211,27.211,50.702,27,50.172,27H27
			c-2.209,0-4,1.791-4,4v52h56c4.418,0,8-3.582,8-8V35h-4V31z"/>
		<path style="fill:#FBEC9A;" d="M87,35H52.236c-0.758,0-1.45,0.428-1.789,1.106l-2.894,5.789C47.214,42.572,46.521,43,45.764,43H27
			c-2.209,0-4,1.791-4,4v36h56c4.418,0,8-3.582,8-8V35z"/>
	</g>
</g>
<g id="Multicolor">
	<g>
		<path style="fill:#FACB1B;" d="M83,31H55.828c-0.53,0-1.039-0.211-1.414-0.586l-2.828-2.828C51.211,27.211,50.702,27,50.172,27H27
			c-2.209,0-4,1.791-4,4v52h56c4.418,0,8-3.582,8-8V35h-4V31z"/>
		<path style="fill:#FBEC9A;" d="M87,35H52.236c-0.758,0-1.45,0.428-1.789,1.106l-2.894,5.789C47.214,42.572,46.521,43,45.764,43H27
			c-2.209,0-4,1.791-4,4v36h56c4.418,0,8-3.582,8-8V35z"/>
	</g>
</g>
<g id="Blue" style="display:none;">
	<g style="display:inline;">
		<g>
			<path style="fill:#0081A1;" d="M83,31H55.829c-0.531,0-1.04-0.21-1.415-0.585l-2.828-2.829C51.211,27.211,50.702,27,50.171,27H27
				c-2.209,0-4,1.791-4,4v52h56c4.419,0,8-3.581,8-8V35h-4V31z"/>
		</g>
		<g>
			<path style="fill:#E1F5FA;" d="M87,35H52.236c-0.757,0-1.45,0.428-1.789,1.106l-2.895,5.789C47.214,42.572,46.521,43,45.764,43
				H27c-2.209,0-4,1.791-4,4v36h56c4.419,0,8-3.581,8-8V35z"/>
		</g>
	</g>
</g>
<g id="R-Blue" style="display:none;">
	<g style="display:inline;">
		<circle style="fill:#81D2EB;" cx="55" cy="55" r="55"/>
	</g>
	<g style="display:inline;">
		<g>
			<path style="fill:#0081A1;" d="M83,31H55.829c-0.531,0-1.04-0.21-1.415-0.585l-2.828-2.829C51.211,27.211,50.702,27,50.171,27H27
				c-2.209,0-4,1.791-4,4v52h56c4.419,0,8-3.581,8-8V35h-4V31z"/>
		</g>
		<g>
			<path style="fill:#E1F5FA;" d="M87,35H52.236c-0.757,0-1.45,0.428-1.789,1.106l-2.895,5.789C47.214,42.572,46.521,43,45.764,43
				H27c-2.209,0-4,1.791-4,4v36h56c4.419,0,8-3.581,8-8V35z"/>
		</g>
	</g>
</g>
<g id="Green" style="display:none;">
	<g style="display:inline;">
		<g>
			<path style="fill:#009687;" d="M83,31H55.829c-0.531,0-1.04-0.21-1.415-0.585l-2.828-2.829C51.211,27.211,50.702,27,50.171,27H27
				c-2.209,0-4,1.791-4,4v52h56c4.418,0,8-3.581,8-8V35h-4V31z"/>
		</g>
		<g>
			<path style="fill:#D7FCF9;" d="M87,35H52.236c-0.757,0-1.45,0.428-1.789,1.106l-2.895,5.789C47.214,42.572,46.521,43,45.764,43
				H27c-2.209,0-4,1.791-4,4v36h56c4.418,0,8-3.581,8-8V35z"/>
		</g>
	</g>
</g>
<g id="R-Green" style="display:none;">
	<g style="display:inline;">
		<circle style="fill:#87E0C8;" cx="55" cy="55" r="55"/>
	</g>
	<g style="display:inline;">
		<g>
			<path style="fill:#009687;" d="M83,31H55.828c-0.531,0-1.039-0.21-1.414-0.585l-2.828-2.829C51.211,27.211,50.702,27,50.171,27
				H27c-2.209,0-4,1.791-4,4v52h56c4.419,0,8-3.581,8-8V35h-4V31z"/>
		</g>
		<g>
			<path style="fill:#D7FCF9;" d="M87,35H52.235c-0.757,0-1.45,0.428-1.788,1.106l-2.895,5.789C47.214,42.572,46.521,43,45.763,43
				H27c-2.209,0-4,1.791-4,4v36h56c4.419,0,8-3.581,8-8V35z"/>
		</g>
	</g>
</g>
<g id="Red" style="display:none;">
	<g style="display:inline;">
		<g>
			<path style="fill:#C23023;" d="M82.896,31H55.725c-0.531,0-1.04-0.21-1.415-0.585l-2.828-2.829
				C51.107,27.211,50.598,27,50.067,27H26.896c-2.209,0-4,1.791-4,4v52h56c4.418,0,8-3.581,8-8V35h-4V31z"/>
		</g>
		<g>
			<path style="fill:#FFEFED;" d="M86.896,35H52.132c-0.757,0-1.45,0.428-1.789,1.106l-2.895,5.789C47.11,42.572,46.417,43,45.66,43
				H26.896c-2.209,0-4,1.791-4,4v36h56c4.418,0,8-3.581,8-8V35z"/>
		</g>
	</g>
</g>
<g id="R-Red" style="display:none;">
	<g style="display:inline;">
		<circle style="fill:#FABBAF;" cx="55" cy="55" r="55"/>
	</g>
	<g style="display:inline;">
		<g>
			<path style="fill:#C23023;" d="M83,31H55.829c-0.531,0-1.04-0.21-1.415-0.585l-2.828-2.829C51.211,27.211,50.702,27,50.171,27H27
				c-2.209,0-4,1.791-4,4v52h56c4.419,0,8-3.581,8-8V35h-4V31z"/>
		</g>
		<g>
			<path style="fill:#FFEFED;" d="M87,35H52.236c-0.757,0-1.45,0.428-1.789,1.106l-2.895,5.789C47.214,42.572,46.521,43,45.764,43
				H27c-2.209,0-4,1.791-4,4v36h56c4.419,0,8-3.581,8-8V35z"/>
		</g>
	</g>
</g>
<g id="Yellow" style="display:none;">
	<g style="display:inline;">
		<g>
			<path style="fill:#E07000;" d="M82.896,31H55.725c-0.531,0-1.04-0.21-1.415-0.585l-2.828-2.829
				C51.107,27.211,50.598,27,50.067,27H26.896c-2.209,0-4,1.791-4,4v52h56c4.418,0,8-3.581,8-8V35h-4V31z"/>
		</g>
		<g>
			<path style="fill:#FFF5D9;" d="M86.896,35H52.132c-0.757,0-1.45,0.428-1.789,1.106l-2.895,5.789C47.11,42.572,46.417,43,45.66,43
				H26.896c-2.209,0-4,1.791-4,4v36h56c4.418,0,8-3.581,8-8V35z"/>
		</g>
	</g>
</g>
<g id="R-Yellow" style="display:none;">
	<g style="display:inline;">
		<circle style="fill:#FFD75E;" cx="55" cy="55" r="55"/>
	</g>
	<g style="display:inline;">
		<g>
			<path style="fill:#E07000;" d="M83,31H55.829c-0.531,0-1.04-0.21-1.415-0.585l-2.828-2.829C51.211,27.211,50.702,27,50.171,27H27
				c-2.209,0-4,1.791-4,4v52h56c4.419,0,8-3.581,8-8V35h-4V31z"/>
		</g>
		<g>
			<path style="fill:#FFF5D9;" d="M87,35H52.236c-0.757,0-1.45,0.428-1.789,1.106l-2.895,5.789C47.214,42.572,46.521,43,45.764,43
				H27c-2.209,0-4,1.791-4,4v36h56c4.419,0,8-3.581,8-8V35z"/>
		</g>
	</g>
</g>
</svg>
