<?xml version="1.0" encoding="iso-8859-1"?>
<!-- Generator: Adobe Illustrator 17.1.0, SVG Export Plug-In . SVG Version: 6.00 Build 0)  -->
<!DOCTYPE svg PUBLIC "-//W3C//DTD SVG 1.0//EN" "http://www.w3.org/TR/2001/REC-SVG-20010904/DTD/svg10.dtd">
<svg version="1.0" xmlns="http://www.w3.org/2000/svg" xmlns:xlink="http://www.w3.org/1999/xlink" x="0px" y="0px" width="110px"
	 height="110px" viewBox="0 0 110 110" style="enable-background:new 0 0 110 110;" xml:space="preserve">
<g id="Artboard">
</g>
<g id="Multicolor">
	<circle style="fill:#E04F5F;" cx="55" cy="55" r="55"/>
	<g>
		<path style="fill:#FFFFFF;" d="M79,27c4.42,0,8,3.58,8,8v36c0,4.42-3.58,8-8,8H31c-4.42,0-8-3.58-8-8V35c0-4.42,3.58-8,8-8H79z"/>
		<path style="fill:#84462D;" d="M49.742,73.194L38.944,83.992c-1.344,1.344-3.522,1.344-4.867,0s-1.344-3.522,0-4.867L44.9,68.303
			C46.098,70.299,47.758,71.977,49.742,73.194z"/>
		<path style="fill:#9C6144;" d="M46.992,70.998L34.041,83.949c-1.308-1.344-1.296-3.492,0.03-4.824L44.9,68.297
			C45.489,69.277,46.195,70.183,46.992,70.998z"/>
		<path style="fill:#FFFFFF;" d="M57.4,75.272c-7.995,0-14.5-6.505-14.5-14.5s6.505-14.5,14.5-14.5s14.5,6.505,14.5,14.5
			S65.396,75.272,57.4,75.272z"/>
		<path style="fill:#CFD3D4;" d="M57.4,46.26c8.012,0,14.512,6.5,14.512,14.512s-6.5,14.512-14.512,14.512
			c-8.041,0-14.512-6.561-14.512-14.512C42.888,52.76,49.388,46.26,57.4,46.26 M57.4,44.272c-9.098,0-16.5,7.402-16.5,16.5
			s7.402,16.5,16.5,16.5s16.5-7.402,16.5-16.5S66.499,44.272,57.4,44.272L57.4,44.272z"/>
		<circle style="fill:#6FDAF1;" cx="57.4" cy="60.772" r="11.558"/>
		<path style="fill:#9CE5F4;" d="M57.4,49.214c-6.383,0-11.558,5.175-11.558,11.558c0,3.158,1.27,6.018,3.323,8.104l16.339-16.339
			C63.418,50.484,60.559,49.214,57.4,49.214z"/>
		<path style="fill:#3E3E3F;" d="M79,27H31c-4.418,0-8,3.582-8,8v4h64v-4C87,30.582,83.418,27,79,27z"/>
		<circle style="fill:#FA5655;" cx="32" cy="33" r="2"/>
		<circle style="fill:#F3B607;" cx="40" cy="33" r="2"/>
		<circle style="fill:#17B198;" cx="48" cy="33" r="2"/>
	</g>
</g>
</svg>
